<?xml version="1.0" encoding="UTF-8"?>
<svg id="Layer_1" data-name="Layer 1" xmlns="http://www.w3.org/2000/svg" viewBox="0 0 1282 386">
  <defs>
    <style>
      .cls-1, .cls-2, .cls-3 {
        stroke-width: 0px;
      }

      .cls-2 {
        fill: #2fb7c2;
      }

      .cls-3 {
        fill: #fff;
      }
    </style>
  </defs>
  <rect class="cls-1" width="1282" height="386"/>
  <g>
    <polygon class="cls-3" points="1184.44 82.66 1166.61 82.66 1013.95 82.66 996.12 82.66 978.29 82.66 978.29 102.89 996.12 102.89 1013.95 102.89 1061.01 102.89 1061.01 303.34 1078.84 303.34 1083.89 303.34 1096.67 303.34 1101.72 303.34 1119.55 303.34 1119.55 102.89 1166.61 102.89 1184.44 102.89 1202.27 102.89 1202.27 82.66 1184.44 82.66"/>
    <polygon class="cls-2" points="967.53 82.66 962.47 82.66 949.7 82.66 944.64 82.66 926.81 82.66 926.81 303.34 944.64 303.34 949.7 303.34 962.47 303.34 967.53 303.34 985.36 303.34 985.36 82.66 967.53 82.66"/>
    <g>
      <polygon class="cls-3" points="931.64 82.66 913.81 82.66 906.47 82.66 895.98 82.66 888.64 82.66 870.81 82.66 778.65 180.11 778.65 243.69 802.2 219.22 866.14 303.32 883.97 303.32 891.91 303.32 901.8 303.32 909.74 303.32 927.57 303.32 836.84 184.77 931.64 82.66"/>
      <polygon class="cls-2" points="720.1 82.66 720.1 303.34 737.93 303.34 742.99 303.34 755.76 303.34 760.82 303.34 778.65 303.34 778.65 243.69 778.65 180.11 778.65 82.66 720.1 82.66"/>
    </g>
    <path class="cls-2" d="m682.18,274.24c-10.68,4.58-22.13,6.87-34.33,6.87-3.02,0-5.99-.14-8.92-.42-3.02-.29-5.99-.73-8.92-1.32-5.69-1.14-11.19-2.85-16.49-5.13-10.68-4.58-20.06-10.84-28.11-18.8-8.07-7.96-14.39-17.33-18.97-28.12-4.57-10.79-6.86-22.28-6.86-34.49s2.29-23.37,6.86-34.16c4.58-10.79,10.9-20.15,18.97-28.11,8.06-7.96,17.43-14.28,28.11-18.96,5.31-2.33,10.81-4.08,16.49-5.25-2.92-.6-5.89-1.05-8.91-1.35-2.93-.29-5.9-.44-8.91-.44-12.21,0-23.65,2.35-34.33,7.03-3.13,1.37-6.12,2.93-9.03,4.59.36-.38.68-.79,1.04-1.16,9.92-10.02,21.58-17.92,34.98-23.71,8.04-3.46,16.45-5.75,25.15-7.14-2.93-.47-5.89-.86-8.9-1.09-2.94-.23-5.89-.43-8.91-.43-15.26,0-29.59,2.89-42.99,8.66-13.4,5.78-25.06,13.69-34.98,23.71-9.92,10.03-17.76,21.69-23.54,34.98-5.78,13.29-8.66,27.57-8.66,42.82s2.89,29.59,8.66,43c5.78,13.4,13.62,25.06,23.54,34.98,9.92,9.92,21.58,17.77,34.98,23.54,13.41,5.77,27.73,8.66,42.99,8.66,3.02,0,5.97-.2,8.91-.43,3.01-.23,5.97-.62,8.9-1.09,8.67-1.39,17.04-3.68,25.01-7.14,13.29-5.77,24.95-13.62,34.98-23.54.26-.25.47-.54.73-.79-2.76,1.53-5.59,2.95-8.55,4.22Z"/>
    <g>
      <path class="cls-3" d="m690.68,91.33c-13.3-5.77-27.58-8.66-42.83-8.66-3.02,0-5.97.2-8.92.43-3.02.23-5.98.62-8.93,1.09-8.7,1.39-17.11,3.68-25.15,7.14-13.4,5.78-25.06,13.69-34.98,23.71-.37.37-.68.78-1.04,1.16,2.91-1.66,5.9-3.22,9.03-4.59,10.67-4.68,22.12-7.03,34.33-7.03,3.02,0,5.99.15,8.91.44,3.02.3,5.99.75,8.91,1.35,5.69,1.17,11.19,2.92,16.5,5.25,10.67,4.68,20.05,11,28.11,18.96,6.04,5.96,11.1,12.71,15.18,20.26l35.82-35.82c-10.02-10.01-21.67-17.9-34.95-23.68Z"/>
      <path class="cls-3" d="m674.63,255.45c-8.07,7.96-17.44,14.22-28.11,18.8-5.31,2.28-10.81,3.98-16.5,5.13,2.92.59,5.89,1.03,8.92,1.32,2.93.28,5.9.42,8.92.42,12.2,0,23.64-2.29,34.33-6.87,2.96-1.27,5.79-2.7,8.55-4.22-.25.26-.47.54-.73.79-10.03,9.92-21.69,17.77-34.98,23.54-7.97,3.46-16.34,5.75-25.01,7.14,2.94.47,5.91.86,8.93,1.09,2.95.23,5.9.43,8.92.43,15.25,0,29.53-2.89,42.83-8.66,13.26-5.76,24.89-13.59,34.9-23.47l-35.74-35.74c-4.09,7.57-9.16,14.34-15.21,20.31Z"/>
    </g>
    <g>
      <path class="cls-2" d="m443.39,274.24c-10.68,4.58-22.13,6.87-34.33,6.87-3.02,0-5.99-.14-8.92-.42-3.02-.29-5.99-.73-8.92-1.32-5.69-1.14-11.19-2.85-16.49-5.13-10.68-4.58-20.06-10.84-28.11-18.8-8.07-7.96-14.39-17.33-18.97-28.12-4.57-10.79-6.86-22.28-6.86-34.49s2.29-23.37,6.86-34.16c4.58-10.79,10.9-20.15,18.97-28.11,8.06-7.96,17.43-14.28,28.11-18.96,5.31-2.33,10.81-4.08,16.49-5.25-2.92-.6-5.89-1.05-8.91-1.35-2.93-.29-5.9-.44-8.91-.44-12.21,0-23.65,2.35-34.33,7.03-3.13,1.37-6.12,2.93-9.03,4.59.36-.38.68-.79,1.04-1.16,9.92-10.02,21.58-17.92,34.98-23.71,8.04-3.46,16.45-5.75,25.15-7.14-2.93-.47-5.89-.86-8.9-1.09-2.94-.23-5.89-.43-8.91-.43-15.26,0-29.59,2.89-42.99,8.66-13.4,5.78-25.06,13.69-34.98,23.71-9.92,10.03-17.76,21.69-23.54,34.98-5.78,13.29-8.66,27.57-8.66,42.82s2.89,29.59,8.66,43c5.78,13.4,13.62,25.06,23.54,34.98,9.92,9.92,21.58,17.77,34.98,23.54,13.41,5.77,27.73,8.66,42.99,8.66,3.02,0,5.97-.2,8.91-.43,3.01-.23,5.97-.62,8.9-1.09,8.67-1.39,17.04-3.68,25.01-7.14,13.29-5.77,24.95-13.62,34.98-23.54.26-.25.47-.54.73-.79-2.76,1.53-5.59,2.95-8.55,4.22Z"/>
      <path class="cls-3" d="m510.58,150.01c-5.78-13.29-13.68-24.95-23.7-34.98-10.03-10.02-21.69-17.92-34.98-23.71-13.3-5.77-27.58-8.66-42.83-8.66-3.02,0-5.97.2-8.92.43-3.02.23-5.98.62-8.93,1.09-8.7,1.39-17.11,3.68-25.15,7.14-13.4,5.78-25.06,13.69-34.98,23.71-.37.37-.68.78-1.04,1.16,2.91-1.66,5.9-3.22,9.03-4.59,10.67-4.68,22.12-7.03,34.33-7.03,3.02,0,5.99.15,8.91.44,3.02.3,5.99.75,8.91,1.35,5.69,1.17,11.19,2.92,16.5,5.25,10.67,4.68,20.05,11,28.11,18.96,8.06,7.96,14.38,17.32,18.96,28.11,4.57,10.79,6.86,22.18,6.86,34.16s-2.29,23.71-6.86,34.49c-4.58,10.79-10.9,20.16-18.96,28.12-8.07,7.96-17.44,14.22-28.11,18.8-5.31,2.28-10.81,3.98-16.5,5.13,2.92.59,5.89,1.03,8.92,1.32,2.93.28,5.9.42,8.92.42,12.2,0,23.64-2.29,34.33-6.87,2.96-1.27,5.79-2.7,8.55-4.22-.25.26-.47.54-.73.79-10.03,9.92-21.69,17.77-34.98,23.54-7.97,3.46-16.34,5.75-25.01,7.14,2.94.47,5.91.86,8.93,1.09,2.95.23,5.9.43,8.92.43,15.25,0,29.53-2.89,42.83-8.66,13.29-5.77,24.95-13.62,34.98-23.54,10.02-9.92,17.92-21.58,23.7-34.98,5.77-13.41,8.66-27.74,8.66-43s-2.89-29.53-8.66-42.82Z"/>
    </g>
    <g>
      <path class="cls-3" d="m266.76,211.8c4.57-6.75,8.17-14.1,10.79-22.06,2.62-7.96,3.93-16.18,3.93-24.69,0-11.33-2.12-22.01-6.38-32.04-4.25-10.02-10.08-18.74-17.49-26.15-7.41-7.41-16.13-13.29-26.15-17.66-10.03-4.35-20.71-6.54-32.04-6.54h-62.04v21.9s26.37,0,26.37,0c8.28,0,16.07,1.58,23.37,4.74,7.3,3.16,13.68,7.47,19.13,12.91,5.45,5.45,9.75,11.88,12.91,19.29,3.16,7.41,4.74,15.25,4.74,23.53s-1.58,16.08-4.74,23.37c-3.16,7.31-7.47,13.69-12.91,19.13-5.45,5.45-11.83,9.76-19.13,12.92-7.3,3.16-15.09,4.74-23.37,4.74h-26.43v21.9s15.97,0,15.97,0h17.11l37.81,56.23h62.14l-41.84-61.78c7.84-2.83,15.04-6.81,21.58-11.94,6.54-5.12,12.1-11.06,16.67-17.82Z"/>
      <polygon class="cls-2" points="79.73 82.66 79.73 303.34 137.3 303.34 137.32 247.11 137.33 225.2 137.37 104.57 137.38 82.66 79.73 82.66"/>
    </g>
  </g>
</svg>